# xmcd
#
# Track frame offsets: 
#        182
#        10857
#        30225
#        43300
#        56340
#        79137
#        96160
#        111832
#        129405
#        141560
#        153320
#        165375
#
# Disc length: 2490 seconds
#
# Revision: 6
# Processed by: cddbd v1.5.2PL0 Copyright (c) Steve Scherf et al.
# Submitted via: ExactAudioCopyFreeDBPlugin 1.0
#
DISCID=9309b80c
DTITLE=Fleetwood Mac - Mr. Wonderful - Original Album Classics -
DYEAR=1968
DGENRE=Blues
TTITLE0=Stop Messin' Round
TTITLE1=I've Lost My Baby
TTITLE2=Rollin' Man
TTITLE3=Dust My Broom
TTITLE4=Love That Burns
TTITLE5=Doctor Brown
TTITLE6=Need Your Love Tonight
TTITLE7=If You Be My Baby
TTITLE8=Evenin' Boogie
TTITLE9=Lazy Poker Blues
TTITLE10=Coming Home
TTITLE11=Trying So Hard To Forget
EXTD=YEAR: 1968
EXTT0=
EXTT1=
EXTT2=
EXTT3=
EXTT4=
EXTT5=
EXTT6=
EXTT7=
EXTT8=
EXTT9=
EXTT10=
EXTT11=
PLAYORDER=
